<svg xmlns="http://www.w3.org/2000/svg" width="512" height="512" style="shape-rendering:geometricPrecision;text-rendering:geometricPrecision;image-rendering:optimizeQuality;fill-rule:evenodd;clip-rule:evenodd"><path style="opacity:.994" d="M71.5-.5h368c39 9 63 33 72 72v368c-9 39-33 63-72 72h-368c-39-9-63-33-72-72v-368c9-39 33-63 72-72zm68 112c53.001-.167 106.001 0 159 .5 24.128 1.317 44.295 10.817 60.5 28.5 11.068 17.049 15.068 35.716 12 56-4.522 24.686-18.356 42.019-41.5 52 27.16 6.992 44.66 23.992 52.5 51 11.638 56.569-10.528 91.736-66.5 105.5a187.529 187.529 0 0 1-19 3c-52.332.5-104.666.667-157 .5v-297z"/><path style="opacity:.976" d="M190.5 152.5c30.002-.167 60.002 0 90 .5 27 .166 40.334 13.666 40 40.5-.484 24.987-13.15 39.154-38 42.5-30.665.5-61.332.667-92 .5v-84z"/><path style="opacity:.978" d="M190.5 272.5c32.002-.167 64.002 0 96 .5 29.746 1.081 45.746 16.414 48 46-.792 28.79-15.459 44.79-44 48-33.332.5-66.665.667-100 .5v-95z"/></svg>