<svg xmlns="http://www.w3.org/2000/svg" width="512" height="512" style="shape-rendering:geometricPrecision;text-rendering:geometricPrecision;image-rendering:optimizeQuality;fill-rule:evenodd;clip-rule:evenodd"><path style="opacity:.988" d="M31.5-.5h448a78774.731 78774.731 0 0 1-40.5 461 23342.657 23342.657 0 0 0-179.5 51h-8a23342.657 23342.657 0 0 0-179.5-51A78846.174 78846.174 0 0 1 31.5-.5zm83 95h282a228022.027 228022.027 0 0 0-25 287 4621.675 4621.675 0 0 0-116.5 32 3285.732 3285.732 0 0 0-115.5-32 2348.663 2348.663 0 0 0-8-89.5c18.664-.5 37.33-.667 56-.5a1023.938 1023.938 0 0 1 4 47l64 17c21.352-5.674 42.685-11.341 64-17 2.593-26.674 5.26-53.341 8-80a6774.761 6774.761 0 0 1-198 .5 1401.931 1401.931 0 0 1-6-52.5c69.668-.51 139.335-1.176 209-2a2849.457 2849.457 0 0 0 4-59c-72.99.968-145.99 1.301-219 1l-3-52z"/></svg>