<svg xmlns="http://www.w3.org/2000/svg" width="512" height="512" style="shape-rendering:geometricPrecision;text-rendering:geometricPrecision;image-rendering:optimizeQuality;fill-rule:evenodd;clip-rule:evenodd"><path style="opacity:.984" d="M511.5 239.5v45c-10.955 85.108-52.955 149.941-126 194.5a258.363 258.363 0 0 1-54 22.5c-7.167.175-11.667-3.159-13.5-10a835.003 835.003 0 0 1 .5-69.5c.089-13.98-3.078-27.147-9.5-39.5a57.217 57.217 0 0 0-8.5-9.5c85.884-8.899 124.384-56.399 115.5-142.5a114.526 114.526 0 0 0-7-23c-4.885-9.698-10.718-18.698-17.5-27 7.054-21.93 6.221-43.596-2.5-65-11.568-1.29-22.735.543-33.5 5.5a663.04 663.04 0 0 0-37.5 19.5c-41.998-10.667-83.998-10.667-126 0a663.04 663.04 0 0 0-37.5-19.5c-10.542-4.709-21.542-6.709-33-6-9.187 21.454-10.187 43.288-3 65.5-7.121 9.314-13.288 19.314-18.5 30-10.1 31.815-9.433 63.482 2 95 14.739 33.141 39.905 53.641 75.5 61.5a805.325 805.325 0 0 0 32 6c-9.517 9.536-14.851 21.036-16 34.5-34.671 14.167-61.171 5.167-79.5-27-9.102-11.62-20.935-18.287-35.5-20-12.071-.154-13.738 3.679-5 11.5 11.5 6.167 20.333 15 26.5 26.5a236.466 236.466 0 0 0 13 26c10.504 12.837 24.004 20.337 40.5 22.5 13.06.831 26.06.331 39-1.5.167 15.67 0 31.337-.5 47-2.339 6.096-6.839 9.096-13.5 9-73.225-23.057-126.058-69.39-158.5-139-10.615-25.132-17.448-51.132-20.5-78v-45C11.331 146.185 58.998 78.018 142.5 35c84.691-37.358 167.357-33.358 248 12 70.583 44.97 110.917 109.136 121 192.5z"/></svg>