<svg xmlns="http://www.w3.org/2000/svg" width="512" height="512" style="shape-rendering:geometricPrecision;text-rendering:geometricPrecision;image-rendering:optimizeQuality;fill-rule:evenodd;clip-rule:evenodd"><path style="opacity:.991" d="M29.5-.5h453a101640.34 101640.34 0 0 0-32 449 10672.423 10672.423 0 0 0-191 63h-7a8073.432 8073.432 0 0 0-192-63 710832.721 710832.721 0 0 1-31-449zm81 75h290l-4 60h-222a3198.687 3198.687 0 0 0 5 77h211a7415.114 7415.114 0 0 1-13 180.5 26035.444 26035.444 0 0 1-122 40.5 5295.19 5295.19 0 0 1-122.5-42 1855.465 1855.465 0 0 0-4.5-58.5 870.065 870.065 0 0 1 59 0 113.601 113.601 0 0 1 1.5 14.5c.374.916.874 1.75 1.5 2.5a3755.06 3755.06 0 0 0 65.5 21.5 7567.08 7567.08 0 0 0 65.5-22c2.426-25.634 4.426-51.3 6-77h-203c-4.619-65.67-9.286-131.337-14-197z"/></svg>