<svg xmlns="http://www.w3.org/2000/svg" width="512" height="512" style="shape-rendering:geometricPrecision;text-rendering:geometricPrecision;image-rendering:optimizeQuality;fill-rule:evenodd;clip-rule:evenodd"><path style="opacity:.991" d="M-.5-.5h512v11a73265.882 73265.882 0 0 0-42 459 14486.272 14486.272 0 0 0-209 42h-10a14486.272 14486.272 0 0 0-209-42 73296.09 73296.09 0 0 0-42-459v-11zm192 86h42c.333 111.335 0 222.669-1 334a8154.63 8154.63 0 0 0-111-22 1833.736 1833.736 0 0 0-7-77 441.814 441.814 0 0 1 42-1 511.568 511.568 0 0 0 5 43 397.672 397.672 0 0 0 30 6v-283zm86 0h140a4903.792 4903.792 0 0 1-4 42h-94v107h84l-14 163a8154.63 8154.63 0 0 0-111 22 228.211 228.211 0 0 1 0-42.5 4466.047 4466.047 0 0 0 71-14.5 2581.308 2581.308 0 0 0 9-86h-81v-191z"/></svg>